<svg xmlns="http://www.w3.org/2000/svg" viewBox="0 0 613.1 169.92"><defs><style>.a{fill:#3b007f;}</style></defs><title>logo</title><polygon class="a" points="146.43 36.55 160.55 0 145.99 0 95.9 130.16 15.63 89.92 15.63 89.49 99.34 47.53 99.34 32.76 0 83.93 0 95.49 91.17 142.45 86.26 155.22 100.6 155.22 141.68 48.85 223.39 89.49 223.39 89.92 139.03 131.88 139.03 146.66 238.37 95.7 238.37 83.71 146.43 36.55"/><path d="M246.17,155.61A4.87,4.87,0,0,1,243,154a9.32,9.32,0,0,1-2.06-3.39,15.28,15.28,0,0,1-.61-4.72,52,52,0,0,1,2.41-14.6q2.41-8.13,5.47-11.78a4.06,4.06,0,0,1,3.37-1.53,4.23,4.23,0,0,1,3.66,2.08,9.63,9.63,0,0,1,1.39,5.45,56.61,56.61,0,0,1-1.43,11.66,108.29,108.29,0,0,1-4,13.89,7.71,7.71,0,0,1-2.51,3.92,4.46,4.46,0,0,1-2.39.63Zm4.71-39.39q-3.68-.12-3.68-4.43a14.37,14.37,0,0,1,1.08-5,11.93,11.93,0,0,1,2.45-4.21,4.45,4.45,0,0,1,1.43-1.06,4.73,4.73,0,0,1,1.86-.31,3.83,3.83,0,0,1,2.88,1,4.53,4.53,0,0,1,.92,3.19,14.52,14.52,0,0,1-1,5.27,11,11,0,0,1-2.57,4,4.77,4.77,0,0,1-3.29,1.55Z"/><path d="M267.93,117.32l.16-.47a56.41,56.41,0,0,1,4.47-10.27,8.81,8.81,0,0,1,2.51-2.51,10.72,10.72,0,0,1,5.69-1.92,3.58,3.58,0,0,1,2.39.71,2.54,2.54,0,0,1,.82,2,12.57,12.57,0,0,1-1.18,3.68,54,54,0,0,0-3,8.66,10.5,10.5,0,0,1,1.3.24,9.76,9.76,0,0,1,3.1.8,1.74,1.74,0,0,1,.75,1.63,7.34,7.34,0,0,1-1.06,3.84,6.46,6.46,0,0,1-2.78,2.59,13,13,0,0,1-4.19.78q-.5,1.53-1.12,4.2-.35,2.35-.78,6.51a18.8,18.8,0,0,0-.24,2.86q0,6.19,6,6.19h.35q.71,0,.71.24,0,.63-1.33,2.12a17.46,17.46,0,0,1-2.94,2.63,15.83,15.83,0,0,1-3.77,1.88,11.41,11.41,0,0,1-3.69.71,8.7,8.7,0,0,1-6.7-2.78,10.43,10.43,0,0,1-2.57-7.37,25.5,25.5,0,0,1,.69-5.13q.68-3.18,2.14-8.51.24-.94.51-2t.31-1.23a3.34,3.34,0,0,1-2.23-.67,2.69,2.69,0,0,1-.67-2,7,7,0,0,1,1.9-4.66A8.06,8.06,0,0,1,267.93,117.32Z"/><path d="M292.74,143a4.82,4.82,0,0,1-3.37-1.18,3.9,3.9,0,0,1-1.29-3,9,9,0,0,1,.65-2.92,6.51,6.51,0,0,1,1.35-2.45q1.8-1.69,7.57-1.69a16.37,16.37,0,0,1,5.84.74,2.6,2.6,0,0,1,1.76,2.55,6,6,0,0,1-1.1,3.61,7.92,7.92,0,0,1-3.68,2.43A25.32,25.32,0,0,1,292.74,143Z"/><path d="M329.66,117.39a7.22,7.22,0,0,1,4.74,1.72,5.55,5.55,0,0,1,1.76,4.31,9.58,9.58,0,0,1-1.35,4.74,12.42,12.42,0,0,1-3.41,3.92,6.91,6.91,0,0,1-4.14,1.53q-1.21,0-1.21-.86a4.76,4.76,0,0,1,.47-1.37,11.48,11.48,0,0,0,1.53-6q0-1.69-.39-1.69-.55,0-1.57,1.41a13.78,13.78,0,0,0-1.72,3.33,44.57,44.57,0,0,0-2,6.43,25.85,25.85,0,0,0-.8,5.76,9.1,9.1,0,0,0,.8,4.19,2.48,2.48,0,0,0,2.25,1.53,7.41,7.41,0,0,0,3.57-1.41,22.72,22.72,0,0,0,4.23-3.49q.82-1.06,1.45-1.06.94,0,.94,1.06a12.34,12.34,0,0,1-3.76,8.74,21.12,21.12,0,0,1-5.94,4.17,14.3,14.3,0,0,1-6,1.59,10.83,10.83,0,0,1-7.76-2.94,9.78,9.78,0,0,1-3.1-7.41,25.15,25.15,0,0,1,2-9.39,39,39,0,0,1,5.41-9.35,34.41,34.41,0,0,1,7.78-7.41,10.94,10.94,0,0,1,6.11-2.12Z"/><path d="M365.22,115.79q5.84,0,5.84,1.37,0,1.57-2.62,1.69a13.17,13.17,0,0,0-5.92,1.8,17,17,0,0,0-4.88,4.39,21.82,21.82,0,0,0-3.33,6.27,22.53,22.53,0,0,0-1.2,7.37,11,11,0,0,0,2,6.88,6.26,6.26,0,0,0,5.21,2.61q3,0,5.21-3.06a11.77,11.77,0,0,0,2.23-7.13,14.35,14.35,0,0,0-1.39-6.25,13.16,13.16,0,0,0-4.06-4.92q-1.14-.9-1.14-1.29,0-.55,1.61-1.69a18.84,18.84,0,0,1,4-2,11.29,11.29,0,0,1,3.76-.82,6.58,6.58,0,0,1,3.35.92,9,9,0,0,1,2.8,2.63,13,13,0,0,1,1.86,3.92,16.83,16.83,0,0,1,.65,4.72,22.62,22.62,0,0,1-1.57,8.21,18.34,18.34,0,0,1-4.12,6.57,26.56,26.56,0,0,1-7.94,5.19,22.19,22.19,0,0,1-8.84,2,24.26,24.26,0,0,1-8.09-1.41,16.9,16.9,0,0,1-6.37-3.72q-3.14-3.14-3.14-8.9a20.46,20.46,0,0,1,2.23-9.09,29.67,29.67,0,0,1,6.06-8.25,30.47,30.47,0,0,1,8.43-5.84A21.93,21.93,0,0,1,365.22,115.79Z"/><path d="M425.34,141l-10.7,11a19.47,19.47,0,0,1-3.35,2.84,5.34,5.34,0,0,1-2.8.76,5.22,5.22,0,0,1-4-1.78,6.25,6.25,0,0,1-1.62-4.37,14.15,14.15,0,0,1,.49-3.51,57.47,57.47,0,0,1,1.94-5.66c.18-.52.36-1,.53-1.35s.31-.7.41-1l-.16-.16q-3.8,4-7.45,8.43-3.06,3.65-4.86,5.45a19,19,0,0,1-3.25,2.7,5.05,5.05,0,0,1-2.59.9,4.77,4.77,0,0,1-4-2,8.92,8.92,0,0,1-1.49-5.45q0-4.35,3.76-14.07a81.11,81.11,0,0,1,5.21-11.56q2.7-4.08,6.19-4.08a5.86,5.86,0,0,1,3.51,1,3.07,3.07,0,0,1,1.39,2.61q0,2.94-2.22,9-.86,2.23-1.76,5.05l.16.16q1.45-1.61,4.66-5.52a83,83,0,0,1,8.35-9.28q3.64-3.37,6.66-3.37a4.21,4.21,0,0,1,2.55.9,6.38,6.38,0,0,1,1.94,2.41,7.19,7.19,0,0,1,.73,3.16q0,1.69-2.42,8.63-.51,1.45-.78,2.27c-.18.55-.35,1-.51,1.41l.2.16,1-1c.29-.29.61-.59,1-.92l1-.92q1.06-1,5.32-5.37a31.73,31.73,0,0,1,4.42-4.29,5.35,5.35,0,0,1,3.1-1.16,4.38,4.38,0,0,1,3.7,1.67,8,8,0,0,1,1.27,4.92,49.16,49.16,0,0,1-.63,6.31q-.55,4.86-.76,7.62t-.21,3.86c0,.55,0,1.25.1,2.1s.18,1.76.33,2.72.37,2,.63,3.21q.47,2.15.63,3.37a3.79,3.79,0,0,1-2.06,2.39,7.6,7.6,0,0,1-3.78,1,8.37,8.37,0,0,1-6-2.9,11.61,11.61,0,0,1-1.94-2.69,10.86,10.86,0,0,1-1-3.21,33,33,0,0,1-.29-4.92q0-2,.47-8.27l-.16-.16Z"/><path d="M463.16,129.54l1.22-2.29a55.53,55.53,0,0,1,3.2-5.07,16.67,16.67,0,0,1,2.61-3,9.35,9.35,0,0,1,2.71-1.54,7.62,7.62,0,0,1,2.83-.51,8.44,8.44,0,0,1,5.28,1.76,11.08,11.08,0,0,1,3.54,5.06,21.44,21.44,0,0,1,1.24,7.56A26.61,26.61,0,0,1,483,143.36a25.52,25.52,0,0,1-7.25,9.15A15,15,0,0,1,466.5,156a8.55,8.55,0,0,1-4.65-1.18,10.73,10.73,0,0,1-3.43-4l-.27.67-.23.86q-2.55,8.19-4.06,12.05t-2.61,4.72a2.81,2.81,0,0,1-2,.82,3.86,3.86,0,0,1-3.49-2.2,12.51,12.51,0,0,1-1.25-6.15,68.5,68.5,0,0,1,.94-10.35,119.61,119.61,0,0,1,2.61-12.31,103.27,103.27,0,0,1,3.7-11.41,31.62,31.62,0,0,1,2.93-5.49,14,14,0,0,1,3-3.41A4.36,4.36,0,0,1,460,118a3.74,3.74,0,0,1,2.78,1,3.81,3.81,0,0,1,1,2.8,20.47,20.47,0,0,1-.31,3.39q-.23,1.81-.43,4.18Zm-3,16.71q1.1,3.21,4.15,3.21a5.52,5.52,0,0,0,4-1.94,13.87,13.87,0,0,0,3-5.25,21.59,21.59,0,0,0,1.12-7,24.36,24.36,0,0,0-.45-5q-.45-2.12-1-2.12-.39,0-2,2.08a45.4,45.4,0,0,0-3.21,4.82,67.64,67.64,0,0,0-5,9.41A16,16,0,0,0,460.19,146.24Z"/><path d="M515.62,143.81V144l-.16-.16a74,74,0,0,1-6.68,7,29.5,29.5,0,0,1-5.61,4.1,10.16,10.16,0,0,1-4.72,1.37,9.68,9.68,0,0,1-7.25-2.94,10.24,10.24,0,0,1-2.86-7.45,19.39,19.39,0,0,1,1.41-6.58,35,35,0,0,1,3.88-7.45A38.16,38.16,0,0,1,504,121.75q6.43-4.27,12.39-4.27a15.13,15.13,0,0,1,8.25,2.06q3.23,2.06,3.23,5.19a9.35,9.35,0,0,1-1.61,4.9,4.89,4.89,0,0,1,2.67.45q.55.45.55,2.1,0-.16-.2,1.61Q529,137.66,529,141q0,1.76,0,2.67t.16,2.08q.12,1.18.23,1.88a18.46,18.46,0,0,0,1,3.65,18.28,18.28,0,0,1-4.51,3.39,9.72,9.72,0,0,1-4.39,1.08q-6,0-6-10.11A16.59,16.59,0,0,1,515.62,143.81Zm2.35-9-.74.24a17.5,17.5,0,0,1-4.08.78q-1.53,0-1.53-.78a5.1,5.1,0,0,1,.63-1.45,11.54,11.54,0,0,0,2.2-6.27,7.85,7.85,0,0,0-.59-3.08q-.59-1.39-1.29-1.39t-1.92,1.33a37.11,37.11,0,0,0-5.78,8.11,16.55,16.55,0,0,0-2.14,7.41,6.6,6.6,0,0,0,.88,3.57,2.57,2.57,0,0,0,2.21,1.41q1.14,0,4.25-2.43a70.17,70.17,0,0,0,7-6.43l1.06-.86Z"/><path d="M551.47,134.55l2.36-2.75q3.58-4,5.68-5.91a17.93,17.93,0,0,1,3.76-2.81,7.28,7.28,0,0,1,3.39-.86q2.78,0,3.92,1.49t1.14,5.17q0,1.53-.31,4.51a63.54,63.54,0,0,0-.47,7.45,41.34,41.34,0,0,0,.39,6.35,18,18,0,0,0,.82,3,8.88,8.88,0,0,1,.39,1.92,1.15,1.15,0,0,1-.47,1,11,11,0,0,1-3.21,1.84,9.6,9.6,0,0,1-3.37.78,6.16,6.16,0,0,1-4.06-1.53,9.81,9.81,0,0,1-2.82-4.23,17.51,17.51,0,0,1-1-6.11,36.33,36.33,0,0,1,.47-5.37l-.16-.16q-1.68,1.88-2.72,3t-1.94,2.08q-4.39,5-7.45,9.05-1.17,1.57-2.16,2.74a4.54,4.54,0,0,1-3.29,1.45,5.06,5.06,0,0,1-4.08-1.88,7.34,7.34,0,0,1-1.57-4.86,29.06,29.06,0,0,1,.43-4.51q.43-2.66,1.16-5.7t1.72-6.25q1-3.21,2.18-6.11a21.82,21.82,0,0,1,4.39-7.53,5.82,5.82,0,0,1,4.27-1.76q4.08,0,4.08,5.29a55.2,55.2,0,0,1-1.62,11.12Z"/><path d="M600.7,128.33l.51-1.69a13.17,13.17,0,0,1,3.1-6,11.69,11.69,0,0,1,3.06-2.2,7.14,7.14,0,0,1,3.14-.86q2.59,0,2.59,2.2a13.19,13.19,0,0,1-.71,3.41q-.71,2.31-1.86,5.23t-2.71,6.41q-1.55,3.49-3.43,7.17a80.55,80.55,0,0,1-6.9,11.8,56.44,56.44,0,0,1-5.1,6.11,45.37,45.37,0,0,1-5.43,4.78,26.73,26.73,0,0,1-5.38,3.19,12,12,0,0,1-4.65,1.08q-1.77,0-1.77-1.53a9.57,9.57,0,0,1,.55-2.9,13.11,13.11,0,0,1,1.53-3.18,11.19,11.19,0,0,1,2.67-2.51,40.6,40.6,0,0,1,6-3.21q-2.36-4-3.57-6.27t-2.67-5.76a36.17,36.17,0,0,1-3.22-13.88,21.35,21.35,0,0,1,1.18-7.72,6.4,6.4,0,0,1,3.88-3.61,11.22,11.22,0,0,1,4.08-.9,3.4,3.4,0,0,1,3.43,1.94q.88,1.94,1.55,9.07a131,131,0,0,0,2.29,15.09q.28,1.14.63,3.14h.16q1.06-2.31,2.32-5.61.39-.94,2.75-6.94Q600,130.56,600.7,128.33Z"/></svg>